<?xml version="1.0" encoding="UTF-8"?>
<!DOCTYPE svg PUBLIC "-//W3C//DTD SVG 1.1//EN" "http://www.w3.org/Graphics/SVG/1.1/DTD/svg11.dtd">
<!-- Creator: CorelDRAW X7 -->
<svg xmlns="http://www.w3.org/2000/svg" xml:space="preserve" width="930px" height="930px" version="1.1" style="shape-rendering:geometricPrecision; text-rendering:geometricPrecision; image-rendering:optimizeQuality; fill-rule:evenodd; clip-rule:evenodd"
viewBox="0 0 7028 7028"
 xmlns:xlink="http://www.w3.org/1999/xlink">
 <defs>
  <style type="text/css">
   <![CDATA[
    .fil0 {fill:#FEFEFE}
    .fil2 {fill:#1691CE}
    .fil3 {fill:#FF3D00}
    .fil1 {fill:#FF3D00;fill-rule:nonzero}
   ]]>
  </style>
 </defs>
 <g id="Layer_x0020_1">
  <metadata id="CorelCorpID_0Corel-Layer"/>
  <circle class="fil0" cx="3514" cy="3514" r="3362"/>
  <g id="_835012976">
   <path class="fil1" d="M4778 236c-905,-349 -1865,-298 -2687,66 -822,364 -1505,1042 -1854,1947 -350,905 -299,1866 65,2688 364,822 1042,1505 1947,1854 905,349 1866,299 2688,-66 822,-364 1505,-1042 1854,-1947 349,-905 299,-1865 -66,-2687 -364,-822 -1042,-1505 -1947,-1855zm-2597 270c770,-341 1670,-388 2517,-61 848,327 1482,966 1823,1736 341,770 389,1670 62,2517 -327,848 -967,1482 -1737,1823 -769,341 -1669,389 -2517,62 -847,-327 -1482,-967 -1823,-1737 -341,-769 -388,-1669 -61,-2517 327,-847 966,-1482 1736,-1823z"/>
   <path class="fil2" d="M3514 1661l-1452 0c0,640 533,2859 1452,2859 919,0 1451,-2219 1451,-2859l-1451 0zm1508 338c104,3 191,14 262,33 86,23 147,55 186,95 34,34 52,77 55,124 2,24 0,50 -5,77 -69,358 -317,536 -537,694 -103,74 -200,144 -277,226 -42,117 -96,251 -160,390 34,27 76,43 121,43 102,0 178,-82 170,-183 -2,-37 -15,-70 -35,-99 69,-87 173,-162 283,-242 243,-174 516,-370 597,-786 8,-42 11,-82 8,-120 -7,-88 -41,-168 -107,-235 -62,-62 -151,-111 -269,-142 -77,-21 -167,-34 -272,-38 -4,38 -8,76 -13,113 -2,17 -4,34 -7,50zm-3017 0c-103,3 -190,14 -261,33 -86,23 -148,55 -186,95 -35,34 -52,77 -56,124 -2,24 0,50 5,77 70,358 317,536 537,694 103,74 201,144 277,226 43,117 96,251 161,390 -34,27 -77,43 -122,43 -101,0 -177,-82 -170,-183 3,-37 16,-70 36,-99 -69,-87 -173,-162 -284,-242 -243,-174 -515,-370 -596,-786 -8,-42 -11,-82 -8,-120 6,-88 41,-168 107,-235 62,-62 150,-111 268,-142 77,-21 168,-34 273,-38 4,38 8,76 13,113 2,17 4,34 6,50zm2244 3577l0 -120 -1471 0 0 120 1471 0zm-283 -193c-233,-164 -342,-519 -342,-787 -36,6 -73,10 -110,10 -38,0 -74,-4 -110,-10 0,268 -109,623 -342,787l904 0zm-412 -3202l0 0 117 362 380 -1c23,0 42,19 42,42 0,15 -7,27 -17,35l0 0 -308 223 118 361c7,22 -5,46 -27,53 -15,5 -30,1 -41,-8l-304 -222 -307 224c-19,14 -46,10 -59,-9 -9,-12 -10,-26 -6,-38l0 0 118 -361 -308 -223c-19,-14 -23,-40 -10,-59 9,-13 24,-19 38,-18l377 1 117 -362c7,-22 31,-34 53,-27 13,4 23,15 27,27z"/>
   <path class="fil3" d="M1953 5648l3122 0 0 656c-87,48 -175,92 -266,132 -776,344 -1655,366 -2446,60 -142,-55 -279,-119 -410,-192l0 -656z"/>
  </g>
 </g>
</svg>
